<svg xmlns="http://www.w3.org/2000/svg" viewBox="0 0 1200 630" role="img" aria-label="Codenuke automated code review">
  <defs>
    <filter id="shadow" x="-20%" y="-20%" width="140%" height="150%">
      <feDropShadow dx="0" dy="18" stdDeviation="24" flood-color="#1a1410" flood-opacity="0.18"/>
    </filter>
  </defs>
  <rect width="1200" height="630" fill="#f7f5ef"/>
  <path d="M0 520h1200v110H0z" fill="#fffdf8"/>
  <g opacity="0.32" stroke="#ded7c9" stroke-width="1">
    <path d="M0 90h1200M0 180h1200M0 270h1200M0 360h1200M0 450h1200"/>
    <path d="M120 0v630M240 0v630M360 0v630M480 0v630M600 0v630M720 0v630M840 0v630M960 0v630M1080 0v630"/>
  </g>
  <g transform="translate(710 92) rotate(-6)" filter="url(#shadow)">
    <rect width="390" height="310" rx="10" fill="#111820"/>
    <rect width="390" height="42" rx="10" fill="#1b2530"/>
    <circle cx="26" cy="21" r="6" fill="#f0644c"/>
    <circle cx="46" cy="21" r="6" fill="#f0a84b"/>
    <circle cx="66" cy="21" r="6" fill="#43b6aa"/>
    <g font-family="SFMono-Regular, Menlo, Consolas, monospace" font-size="18">
      <text x="28" y="88" fill="#6f7e8d">01</text>
      <text x="78" y="88" fill="#dfe8ef"><tspan fill="#64d5cb">map</tspan> semantic features</text>
      <text x="28" y="132" fill="#6f7e8d">02</text>
      <text x="78" y="132" fill="#dfe8ef"><tspan fill="#f6bd60">review</tspan> trusted refactors</text>
      <text x="28" y="176" fill="#6f7e8d">03</text>
      <text x="78" y="176" fill="#dfe8ef"><tspan fill="#c4b5fd">persist</tspan> evidence</text>
      <text x="28" y="220" fill="#6f7e8d">04</text>
      <text x="78" y="220" fill="#dfe8ef"><tspan fill="#ff7b72">fix</tspan> only on request</text>
      <text x="28" y="264" fill="#6f7e8d">05</text>
      <text x="78" y="264" fill="#dfe8ef"><tspan fill="#64d5cb">validate</tspan> locally</text>
    </g>
  </g>
  <g transform="translate(86 92)">
    <rect width="74" height="74" rx="14" fill="#111820"/>
    <path d="M22 28 11 37l11 9" fill="none" stroke="#43b6aa" stroke-width="6" stroke-linecap="round" stroke-linejoin="round"/>
    <path d="M52 28 63 37 52 46" fill="none" stroke="#f0644c" stroke-width="6" stroke-linecap="round" stroke-linejoin="round"/>
    <path d="M43 17 31 57" fill="none" stroke="#f0a84b" stroke-width="6" stroke-linecap="round"/>
  </g>
  <text x="86" y="248" font-family="Inter, Arial, sans-serif" font-size="94" font-weight="850" fill="#101418">codenuke</text>
  <text x="92" y="318" font-family="Inter, Arial, sans-serif" font-size="38" font-weight="650" fill="#303941">Automated code review for trusted refactoring.</text>
  <text x="92" y="382" font-family="Inter, Arial, sans-serif" font-size="26" fill="#65717d">Semantic feature mapping. AI review. Explicit validated fixes.</text>
  <g transform="translate(92 450)">
    <rect width="380" height="58" rx="8" fill="#111820"/>
    <text x="28" y="38" font-family="SFMono-Regular, Menlo, Consolas, monospace" font-size="21" fill="#dfe8ef">npm install -g codenuke</text>
  </g>
  <g transform="translate(505 450)">
    <rect width="162" height="58" rx="8" fill="#d8442f"/>
    <text x="81" y="38" text-anchor="middle" font-family="Inter, Arial, sans-serif" font-size="21" font-weight="750" fill="#fff7f2">v0.2.0</text>
  </g>
</svg>
